<svg width="60" height="60" viewBox="0 0 60 60" fill="none" xmlns="http://www.w3.org/2000/svg">
<path d="M29.9998 -1.48444e-05C24.0663 -1.48444e-05 18.2661 1.75946 13.3327 5.05591C8.39918 8.35235 4.55402 13.0377 2.28339 18.5195C0.0127617 24.0013 -0.581344 30.0333 0.576212 35.8527C1.73377 41.6721 4.59099 47.0176 8.78656 51.2132C12.9821 55.4088 18.3276 58.266 24.147 59.4236C29.9665 60.5811 35.9985 59.987 41.4803 57.7164C46.9621 55.4458 51.6474 51.6006 54.9438 46.6671C58.2403 41.7336 59.9998 35.9334 59.9998 30C59.9998 22.0435 56.839 14.4129 51.213 8.78678C45.5869 3.16069 37.9563 -1.48444e-05 29.9998 -1.48444e-05V-1.48444e-05ZM37.6366 16.2829L49.5174 10.3486L43.5831 22.2416C43.4968 22.5691 43.3255 22.868 43.0865 23.108C42.8476 23.348 42.5494 23.5206 42.2223 23.6082C41.8951 23.6959 41.5506 23.6955 41.2237 23.6071C40.8967 23.5187 40.599 23.3455 40.3605 23.105L36.7488 19.4994C36.51 19.2591 36.3389 18.96 36.2529 18.6324C36.167 18.3047 36.1691 17.9601 36.2592 17.6335C36.3494 17.307 36.5243 17.0101 36.7661 16.7729C37.008 16.5357 37.3083 16.3666 37.6366 16.2829ZM40.4335 30.0912C40.4335 32.1909 39.8108 34.2434 38.6443 35.9892C37.4778 37.735 35.8198 39.0957 33.88 39.8992C31.9401 40.7027 29.8056 40.913 27.7463 40.5034C25.6869 40.0937 23.7953 39.0826 22.3106 37.5979C20.8259 36.1132 19.8148 34.2216 19.4052 32.1623C18.9956 30.103 19.2058 27.9684 20.0093 26.0286C20.8128 24.0887 22.1735 22.4307 23.9193 21.2642C25.6651 20.0977 27.7177 19.4751 29.8173 19.4751C32.6329 19.4751 35.3332 20.5935 37.3241 22.5844C39.315 24.5754 40.4335 27.2756 40.4335 30.0912ZM25.926 14.8358L30.1396 2.23147L34.3532 14.8358C34.5235 15.1282 34.6135 15.4604 34.6142 15.7987C34.6148 16.137 34.5262 16.4696 34.3571 16.7626C34.1881 17.0557 33.9446 17.2989 33.6514 17.4677C33.3582 17.6365 33.0256 17.7249 32.6872 17.724H27.592C27.2536 17.7249 26.9211 17.6365 26.6278 17.4677C26.3346 17.2989 26.0912 17.0557 25.9221 16.7626C25.753 16.4696 25.6643 16.137 25.665 15.7987C25.6657 15.4604 25.7558 15.1282 25.926 14.8358V14.8358ZM22.369 16.2282C22.6965 16.3144 22.9955 16.4857 23.2355 16.7247C23.4754 16.9637 23.648 17.2618 23.7357 17.589C23.8233 17.9161 23.8229 18.2606 23.7346 18.5876C23.6462 18.9145 23.473 19.2123 23.2324 19.4508L19.6329 23.0503C19.3945 23.2908 19.0967 23.464 18.7697 23.5524C18.4428 23.6407 18.0983 23.6411 17.7712 23.5535C17.444 23.4658 17.1459 23.2933 16.9069 23.0533C16.6679 22.8133 16.4966 22.5144 16.4104 22.1869L10.476 10.2939L22.369 16.2282ZM1.532 30.0365L14.1364 25.7803C14.4288 25.6101 14.7609 25.5201 15.0992 25.5194C15.4376 25.5187 15.7701 25.6073 16.0632 25.7764C16.3562 25.9455 16.5995 26.1889 16.7683 26.4821C16.9371 26.7754 17.0255 27.1079 17.0245 27.4463V32.5415C17.0255 32.8799 16.9371 33.2125 16.7683 33.5057C16.5995 33.7989 16.3562 34.0424 16.0632 34.2114C15.7701 34.3805 15.4376 34.4692 15.0992 34.4685C14.7609 34.4678 14.4288 34.3778 14.1364 34.2075L1.532 30.0365ZM21.4874 43.7171L9.59443 49.6514L15.5287 37.7584C15.615 37.4309 15.7863 37.132 16.0252 36.892C16.2642 36.652 16.5624 36.4794 16.8895 36.3918C17.2167 36.3041 17.5612 36.3045 17.8881 36.3929C18.2151 36.4812 18.5129 36.6545 18.7513 36.895L22.3508 40.4945C22.5852 40.7335 22.753 41.0295 22.8378 41.3533C22.9225 41.6772 22.9212 42.0175 22.834 42.3406C22.7467 42.6638 22.5766 42.9585 22.3404 43.1957C22.1042 43.4328 21.8102 43.6042 21.4874 43.6927V43.7171ZM34.0735 45.4864L29.8599 58.0908L25.6463 45.4864C25.476 45.194 25.386 44.8619 25.3854 44.5235C25.3847 44.1852 25.4733 43.8527 25.6424 43.5596C25.8115 43.2665 26.0549 43.0233 26.3481 42.8545C26.6414 42.6857 26.9739 42.5973 27.3123 42.5983H32.4075C32.7423 42.5997 33.0709 42.6886 33.3608 42.8562C33.6506 43.0237 33.8916 43.2641 34.06 43.5535C34.2283 43.8428 34.3181 44.1712 34.3205 44.506C34.3229 44.8408 34.2377 45.1703 34.0735 45.4621V45.4864ZM37.8676 44.3251C37.5401 44.2388 37.2412 44.0675 37.0012 43.8286C36.7612 43.5896 36.5886 43.2914 36.501 42.9643C36.4133 42.6372 36.4137 42.2927 36.5021 41.9657C36.5905 41.6388 36.7637 41.341 37.0042 41.1026L40.6037 37.503C40.8422 37.2625 41.14 37.0893 41.4669 37.0009C41.7939 36.9125 42.1384 36.9121 42.4655 36.9998C42.7926 37.0874 43.0908 37.26 43.3298 37.5C43.5687 37.74 43.74 38.0389 43.8263 38.3664L49.7606 50.2594L37.8676 44.3251ZM45.3099 34.2501C45.0175 34.4203 44.6853 34.5103 44.347 34.511C44.0086 34.5117 43.6761 34.423 43.383 34.254C43.09 34.0849 42.8467 33.8415 42.6779 33.5482C42.5091 33.255 42.4208 32.9224 42.4217 32.5841V27.4888C42.4208 27.1505 42.5091 26.8179 42.6779 26.5247C42.8467 26.2315 43.09 25.988 43.383 25.819C43.6761 25.6499 44.0086 25.5612 44.347 25.5619C44.6853 25.5626 45.0175 25.6526 45.3099 25.8229L57.9142 30.0365L45.3099 34.2501Z" fill="#F2C94C" fill-opacity="0.6"/>
</svg>
