<svg width="46" height="66" viewBox="0 0 46 66" fill="none" xmlns="http://www.w3.org/2000/svg">
<path d="M36.9615 18.4046C32.3076 10.6805 27.1313 3.99532 24.4598 0.697769C24.1023 0.256157 23.5659 -0.0002026 22.9997 -3.04309e-05C22.4333 -3.04309e-05 21.897 0.256329 21.5394 0.697941C18.868 3.99652 13.6918 10.6839 9.03792 18.4088C3.04051 28.3641 -0.000488281 36.5949 -0.000488281 42.8722C-0.000488281 55.6249 10.3173 66 22.9995 66C35.6818 66 45.9995 55.6249 45.9995 42.8722C45.9997 36.5908 42.959 28.3587 36.9615 18.4046ZM26.1557 57.4816C24.8127 57.827 23.4187 58.0019 22.0114 58.0019C13.4187 58.0019 6.42805 51.4717 6.42805 43.445C6.42805 41.5073 6.93656 39.2432 7.93904 36.7161C8.10838 36.2892 8.59087 36.0455 9.06651 36.1488C9.54181 36.2518 9.86096 36.6685 9.81199 37.1216C9.75344 37.6636 9.72364 38.193 9.72364 38.6945C9.72364 47.4295 16.7232 54.7443 26.0052 55.7084C26.4672 55.7565 26.8276 56.1039 26.8644 56.5369C26.9014 56.9699 26.6038 57.3662 26.1557 57.4816Z" fill="#2F80ED" fill-opacity="0.6"/>
</svg>
